<svg id="SvgjsSvg1018" width="288" height="288" xmlns="http://www.w3.org/2000/svg" version="1.1" xmlns:xlink="http://www.w3.org/1999/xlink" xmlns:svgjs="http://svgjs.com/svgjs"><defs id="SvgjsDefs1019"></defs><g id="SvgjsG1020"><svg xmlns="http://www.w3.org/2000/svg" enable-background="new 0 0 24 24" viewBox="0 0 24 24" width="288" height="288"><path fill="#cb6b0b" d="M5.503,23C2.469,23,0,20.559,0,17.559c0-3,2.469-5.441,5.503-5.441s5.502,2.441,5.502,5.441C11.005,20.559,8.537,23,5.503,23z" class="svgShape colorff7a55-0 selectable"></path><path fill="#f0910b" d="M12 11.882c-3.034 0-5.502-2.441-5.502-5.441C6.498 3.441 8.966 1 12 1s5.502 2.441 5.502 5.441C17.502 9.441 15.034 11.882 12 11.882zM12 2C9.518 2 7.498 3.992 7.498 6.441c0 2.449 2.02 4.441 4.502 4.441s4.502-1.992 4.502-4.441C16.502 3.992 14.482 2 12 2zM18.497 23c-3.034 0-5.502-2.441-5.502-5.441 0-3 2.468-5.441 5.502-5.441S24 14.559 24 17.559C24 20.559 21.531 23 18.497 23zM18.497 13.118c-2.482 0-4.502 1.992-4.502 4.441 0 2.449 2.02 4.441 4.502 4.441C20.98 22 23 20.008 23 17.559 23 15.11 20.98 13.118 18.497 13.118z" class="svgShape color110638-1 selectable"></path></svg></g></svg>